<svg width="176" height="66" viewBox="0 0 176 66" fill="none" xmlns="http://www.w3.org/2000/svg">
<g id="Blubirch-new-logo-external 1">
<g id="Group">
<path id="Vector" d="M39.1771 19.4365H35.0518V53.2295H39.1771V19.4365Z" fill="url(#paint0_linear_7282_763)"/>
<g id="Clip path group">
<mask id="mask0_7282_763" style="mask-type:luminance" maskUnits="userSpaceOnUse" x="35" y="19" width="5" height="35">
<g id="clippath">
<path id="Vector_2" d="M39.1771 19.4365H35.0518V53.2295H39.1771V19.4365Z" fill="white"/>
</g>
</mask>
<g mask="url(#mask0_7282_763)">
<g id="Group_2">
<path id="Vector_3" d="M39.1771 19.4365H35.0518V53.2295H39.1771V19.4365Z" fill="url(#paint1_linear_7282_763)"/>
</g>
</g>
</g>
</g>
<g id="Group_3">
<path id="Vector_4" d="M60.968 30.0289V43.9484C60.968 44.6992 60.8268 45.4474 60.5939 46.0569C59.8432 47.8855 57.923 49.8057 55.1579 49.8057C51.4092 49.8057 50.096 46.8993 50.096 42.5882V30.0264H45.9707V43.2894C45.9707 51.2576 50.2348 53.2248 53.7977 53.2248C57.8288 53.2248 60.2198 50.8339 61.2976 49.0054H61.3917L61.6246 53.2248H65.2792C65.138 51.4434 65.0909 48.8666 65.0909 46.5227V30.0239H60.9656L60.968 30.0289Z" fill="url(#paint2_linear_7282_763)"/>
<g id="Clip path group_2">
<mask id="mask1_7282_763" style="mask-type:luminance" maskUnits="userSpaceOnUse" x="45" y="30" width="21" height="24">
<g id="clippath-1">
<path id="Vector_5" d="M60.968 30.0289V43.9484C60.968 44.6992 60.8268 45.4474 60.5939 46.0569C59.8432 47.8855 57.923 49.8057 55.1579 49.8057C51.4092 49.8057 50.096 46.8993 50.096 42.5882V30.0264H45.9707V43.2894C45.9707 51.2576 50.2348 53.2248 53.7977 53.2248C57.8288 53.2248 60.2198 50.8339 61.2976 49.0054H61.3917L61.6246 53.2248H65.2792C65.138 51.4434 65.0909 48.8666 65.0909 46.5227V30.0239H60.9656L60.968 30.0289Z" fill="white"/>
</g>
</mask>
<g mask="url(#mask1_7282_763)">
<g id="Group_4">
<path id="Vector_6" d="M65.2792 30.0293H45.9707V53.2302H65.2792V30.0293Z" fill="url(#paint3_linear_7282_763)"/>
</g>
</g>
</g>
</g>
<g id="Group_5">
<path id="Vector_7" d="M76.2 45.1231C76.2 45.1231 76.2 45.1231 76.2 45.1206C76.1058 44.6523 76.0117 44.1369 76.0117 43.6216V39.5433C76.0117 38.8868 76.1529 38.3243 76.247 37.856C77.0894 34.7144 79.7158 32.7942 82.5279 32.7942C86.9332 32.7942 89.2771 36.6841 89.2771 41.2306C89.2771 46.4337 86.7003 49.9471 82.3867 49.9471C79.3862 49.9471 76.9978 47.9798 76.2 45.1206M71.9334 19.4346V46.8525C71.9334 48.8668 71.8393 51.679 71.7451 53.2275H75.308L75.4963 48.9634H75.6375C77.3248 51.9639 79.9487 53.2275 83.2316 53.2275C88.2935 53.2275 93.4024 49.1963 93.4024 41.0894C93.4495 34.199 89.4654 29.5113 83.8411 29.5113C80.1865 29.5113 77.5602 31.1515 76.1083 33.6837H76.0141V19.4346H71.9359H71.9334Z" fill="url(#paint4_linear_7282_763)"/>
<g id="Clip path group_3">
<mask id="mask2_7282_763" style="mask-type:luminance" maskUnits="userSpaceOnUse" x="71" y="19" width="23" height="35">
<g id="clippath-2">
<path id="Vector_8" d="M76.2 45.1231C76.2 45.1231 76.2 45.1231 76.2 45.1206C76.1058 44.6523 76.0117 44.1369 76.0117 43.6216V39.5433C76.0117 38.8868 76.1529 38.3243 76.247 37.856C77.0894 34.7144 79.7158 32.7942 82.5279 32.7942C86.9332 32.7942 89.2771 36.6841 89.2771 41.2306C89.2771 46.4337 86.7003 49.9471 82.3867 49.9471C79.3862 49.9471 76.9978 47.9798 76.2 45.1206M71.9334 19.4346V46.8525C71.9334 48.8668 71.8393 51.679 71.7451 53.2275H75.308L75.4963 48.9634H75.6375C77.3248 51.9639 79.9487 53.2275 83.2316 53.2275C88.2935 53.2275 93.4024 49.1963 93.4024 41.0894C93.4495 34.199 89.4654 29.5113 83.8411 29.5113C80.1865 29.5113 77.5602 31.1515 76.1083 33.6837H76.0141V19.4346H71.9359H71.9334Z" fill="white"/>
</g>
</mask>
<g mask="url(#mask2_7282_763)">
<g id="Group_6">
<path id="Vector_9" d="M93.4475 19.437H71.748V53.2299H93.4475V19.437Z" fill="url(#paint5_linear_7282_763)"/>
</g>
</g>
</g>
</g>
<g id="Group_7">
<path id="Vector_10" d="M102.729 30.0293H98.6035V53.2302H102.729V30.0293Z" fill="url(#paint6_linear_7282_763)"/>
<g id="Clip path group_4">
<mask id="mask3_7282_763" style="mask-type:luminance" maskUnits="userSpaceOnUse" x="98" y="30" width="5" height="24">
<g id="clippath-3">
<path id="Vector_11" d="M102.729 30.0293H98.6035V53.2302H102.729V30.0293Z" fill="white"/>
</g>
</mask>
<g mask="url(#mask3_7282_763)">
<g id="Group_8">
<path id="Vector_12" d="M102.729 30.0293H98.6035V53.2302H102.729V30.0293Z" fill="url(#paint7_linear_7282_763)"/>
</g>
</g>
</g>
</g>
<g id="Group_9">
<path id="Vector_13" d="M113.321 34.4814H113.133L112.992 30.0291H109.382C109.523 32.1376 109.57 34.4344 109.57 37.1053V53.2275H113.648V40.6186C113.648 39.915 113.743 39.2584 113.834 38.6959C114.397 35.6013 116.458 33.4012 119.364 33.4012C119.927 33.4012 120.348 33.4482 120.772 33.5424V29.6525C120.398 29.5583 120.068 29.5112 119.6 29.5112C116.835 29.5112 114.35 31.4339 113.319 34.479" fill="url(#paint8_linear_7282_763)"/>
<g id="Clip path group_5">
<mask id="mask4_7282_763" style="mask-type:luminance" maskUnits="userSpaceOnUse" x="109" y="29" width="12" height="25">
<g id="clippath-4">
<path id="Vector_14" d="M113.321 34.4814H113.133L112.992 30.0291H109.382C109.523 32.1376 109.57 34.4344 109.57 37.1053V53.2275H113.648V40.6186C113.648 39.915 113.743 39.2584 113.834 38.6959C114.397 35.6013 116.458 33.4012 119.364 33.4012C119.927 33.4012 120.348 33.4482 120.772 33.5424V29.6525C120.398 29.5583 120.068 29.5112 119.6 29.5112C116.835 29.5112 114.35 31.4339 113.319 34.479" fill="white"/>
</g>
</mask>
<g mask="url(#mask4_7282_763)">
<g id="Group_10">
<path id="Vector_15" d="M120.775 29.5137H109.385V53.2299H120.775V29.5137Z" fill="url(#paint9_linear_7282_763)"/>
</g>
</g>
</g>
</g>
<g id="Group_11">
<path id="Vector_16" d="M122.788 41.6069C122.788 48.5444 127.24 53.1826 134.084 53.1826C137.129 53.1826 139.52 52.4319 140.598 51.8719L139.894 48.7798C138.722 49.2952 137.176 49.9047 134.832 49.9047C130.333 49.9047 126.958 46.6713 126.958 41.4211C126.958 36.6863 129.77 32.8434 134.973 32.8434C137.223 32.8434 138.769 33.3588 139.753 33.9212L140.689 30.7349C139.564 30.1725 137.409 29.563 134.973 29.563C127.568 29.563 122.788 34.6249 122.788 41.6094" fill="url(#paint10_linear_7282_763)"/>
<g id="Clip path group_6">
<mask id="mask5_7282_763" style="mask-type:luminance" maskUnits="userSpaceOnUse" x="122" y="29" width="19" height="25">
<g id="clippath-5">
<path id="Vector_17" d="M122.788 41.6069C122.788 48.5444 127.24 53.1826 134.084 53.1826C137.129 53.1826 139.52 52.4319 140.598 51.8719L139.894 48.7798C138.722 49.2952 137.176 49.9047 134.832 49.9047C130.333 49.9047 126.958 46.6713 126.958 41.4211C126.958 36.6863 129.77 32.8434 134.973 32.8434C137.223 32.8434 138.769 33.3588 139.753 33.9212L140.689 30.7349C139.564 30.1725 137.409 29.563 134.973 29.563C127.568 29.563 122.788 34.6249 122.788 41.6094" fill="white"/>
</g>
</mask>
<g mask="url(#mask5_7282_763)">
<g id="Group_12">
<path id="Vector_18" d="M140.692 29.561H122.788V53.1831H140.692V29.561Z" fill="url(#paint11_linear_7282_763)"/>
</g>
</g>
</g>
</g>
<g id="Group_13">
<path id="Vector_19" d="M145.427 19.4365V53.2295H149.552V39.0275C149.552 38.2297 149.599 37.6201 149.835 37.0602C150.585 34.8105 152.694 32.9349 155.365 32.9349C159.255 32.9349 160.615 36.0295 160.615 39.684V53.2295H164.74V39.2158C164.74 31.3888 159.867 29.5132 156.819 29.5132C155.273 29.5132 153.819 29.9815 152.6 30.6851C151.334 31.3888 150.303 32.4195 149.646 33.5915H149.552V19.4365H145.427Z" fill="url(#paint12_linear_7282_763)"/>
<g id="Clip path group_7">
<mask id="mask6_7282_763" style="mask-type:luminance" maskUnits="userSpaceOnUse" x="145" y="19" width="20" height="35">
<g id="clippath-6">
<path id="Vector_20" d="M145.427 19.4365V53.2295H149.552V39.0275C149.552 38.2297 149.599 37.6201 149.835 37.0602C150.585 34.8105 152.694 32.9349 155.365 32.9349C159.255 32.9349 160.615 36.0295 160.615 39.684V53.2295H164.74V39.2158C164.74 31.3888 159.867 29.5132 156.819 29.5132C155.273 29.5132 153.819 29.9815 152.6 30.6851C151.334 31.3888 150.303 32.4195 149.646 33.5915H149.552V19.4365H145.427Z" fill="white"/>
</g>
</mask>
<g mask="url(#mask6_7282_763)">
<g id="Group_14">
<path id="Vector_21" d="M164.738 19.4365H145.427V53.2295H164.738V19.4365Z" fill="url(#paint13_linear_7282_763)"/>
</g>
</g>
</g>
</g>
<path id="Vector_22" d="M103.259 25.5074C102.365 26.8776 100.875 27.6233 99.3517 27.6209C99.6738 27.2839 100.026 26.833 100.363 26.3176C100.918 25.4653 101.287 24.6476 101.378 24.1397C100.95 24.4271 100.353 25.0986 99.7977 25.9509C99.4582 26.4712 99.1882 26.9791 99.0098 27.4103C98.3854 26.0153 98.4622 24.3429 99.3566 22.9678C100.296 21.5233 101.904 20.7726 103.507 20.8593C104.233 22.2914 104.198 24.0629 103.257 25.5074" fill="#10B14B"/>
<path id="Vector_23" d="M18.8569 14.2959C18.8569 14.2959 18.8395 14.3009 18.8197 14.3058C18.7974 14.3133 18.7627 14.3182 18.7033 14.3133C15.4872 14.0928 11.134 15.951 14.1889 20.1928C13.6662 19.4247 13.2425 18.5501 13.3614 17.6358C13.3837 17.4451 13.4481 17.2568 13.5423 17.0883C13.6067 16.9693 13.7008 16.8578 13.8 16.7612C14.7142 15.8866 15.8341 16.6844 16.6939 17.0759C17.7196 17.5466 18.6438 18.1338 19.5605 18.7954C20.7647 19.6626 22.0952 20.5397 22.1893 22.227C22.2909 24.0877 20.6036 25.832 18.7503 25.5247C19.8826 27.1922 22.7865 29.3626 23.7998 30.158C23.8073 30.158 23.6041 29.8235 23.7057 29.6798C24.5952 28.7432 25.3261 27.5242 25.6729 26.2135C26.1957 24.2364 26.1833 22.1947 25.4202 20.277C24.2978 17.455 21.6889 15.5298 18.9956 14.3034C18.9783 14.2959 18.9411 14.2935 18.9089 14.2935C18.8817 14.2935 18.8594 14.2935 18.8594 14.2935" fill="url(#paint14_linear_7282_763)"/>
<path id="Vector_24" d="M9.97224 19.0822V19.0971L9.9772 19.102L10.5049 21.436C11.6769 26.5945 12.0832 31.9141 11.5084 37.1593C11.496 37.2857 11.2309 39.4388 11.2111 39.5651L10.5545 42.8852C10.5545 42.8852 10.6486 43.2445 10.6511 43.2445C10.6833 43.294 14.2784 48.1973 19.5088 47.6299C19.6946 47.6101 19.8804 47.5804 20.0613 47.5432C19.8879 47.563 19.7095 47.5853 19.5286 47.5804C16.8552 47.4937 15.2794 45.5239 14.9771 43.4749C14.9697 43.4328 14.8632 42.1221 15.1729 41.5398C15.9484 39.305 18.0395 38.1677 20.5048 38.1157C21.9146 38.086 23.2203 38.4898 24.2585 39.1935L23.3318 37.7787C23.042 37.3377 22.7223 36.9115 22.3854 36.4978C22.0261 36.0518 21.647 35.6207 21.2605 35.192C20.8467 34.7361 20.4206 34.2877 19.9944 33.8417C19.541 33.366 19.0851 32.8928 18.6317 32.417C18.151 31.9116 17.6753 31.4062 17.207 30.8908C16.7165 30.3507 16.2333 29.8006 15.7675 29.2407C15.2769 28.6535 14.8012 28.0539 14.3478 27.4394C13.8721 26.7927 13.4187 26.1337 12.9925 25.4597C12.5416 24.7487 12.1229 24.0202 11.7388 23.2769C11.33 22.489 10.9584 21.6838 10.6313 20.8661C10.3637 20.2021 10.0912 19.4787 9.90039 18.7354L9.97968 19.0797L9.97224 19.0822Z" fill="url(#paint15_linear_7282_763)"/>
<path id="Vector_25" d="M11.8826 13.1683C11.3251 13.4012 10.8544 13.7629 10.5026 14.2114C9.72456 15.2049 9.54865 16.3521 9.66758 17.5092C9.69235 17.7495 9.72952 17.9898 9.77659 18.2351C9.77659 18.2351 9.77742 18.2376 9.77907 18.2426L9.88313 18.7034C9.88313 18.7034 9.88809 18.7282 9.89304 18.7381C10.0838 19.4814 10.3539 20.2074 10.6215 20.8689C10.951 21.6865 11.3202 22.4918 11.7315 23.2797C12.1155 24.023 12.5342 24.7514 12.9877 25.465C13.4138 26.1364 13.8647 26.798 14.3429 27.4446C14.7939 28.0566 15.2696 28.6537 15.7602 29.2434C16.2284 29.8034 16.7091 30.3534 17.2022 30.8935C17.668 31.4089 18.1437 31.9168 18.6268 32.4198C19.0778 32.8955 19.5361 33.3687 19.992 33.8444C20.4182 34.2929 20.8419 34.7389 21.2556 35.1948C21.6422 35.6234 22.0237 36.0545 22.383 36.5005C22.7199 36.9168 23.0371 37.3429 23.3295 37.7839C23.5995 38.1952 23.8448 38.6189 24.048 39.0624C25.4157 42.0108 24.4345 44.2259 23.3815 45.5589C22.5837 46.5673 21.3944 47.2784 20.0589 47.5484C19.8781 47.5831 19.6898 47.6153 19.5064 47.6352C14.2488 48.2025 10.562 42.8359 10.562 42.8359C9.88066 45.5415 10.5893 48.9335 12.6333 50.8908C13.8895 52.095 15.5719 52.7961 17.2889 53.0662C19.8607 53.4701 22.7051 53.1703 24.9622 51.815C29.1495 49.3002 31.2828 45.1897 30.5147 40.2319C30.0489 37.2339 28.2352 33.1234 22.2244 28.4778C16.4044 23.9833 14.3182 20.4229 14.1943 20.2074C14.1918 20.1974 14.1893 20.195 14.1893 20.195C11.1344 15.9532 15.4851 14.0949 18.7036 14.3155C18.7656 14.3204 18.8424 14.3155 18.9019 14.3105C18.9514 14.308 18.9861 14.3031 18.996 14.3055C18.9935 14.3031 18.8944 14.256 18.8944 14.256C16.3945 13.0964 14.7691 12.7793 13.6938 12.7793C12.7151 12.7793 12.1948 13.0419 11.8851 13.1683" fill="url(#paint16_linear_7282_763)"/>
</g>
<defs>
<linearGradient id="paint0_linear_7282_763" x1="35.0518" y1="36.3318" x2="39.1746" y2="36.3318" gradientUnits="userSpaceOnUse">
<stop stop-color="#009FFD"/>
<stop offset="1" stop-color="#2A2A72"/>
</linearGradient>
<linearGradient id="paint1_linear_7282_763" x1="37.0647" y1="19.506" x2="37.0647" y2="53.2183" gradientUnits="userSpaceOnUse">
<stop stop-color="#009FFD"/>
<stop offset="1" stop-color="#2A2A72"/>
</linearGradient>
<linearGradient id="paint2_linear_7282_763" x1="45.9707" y1="41.6293" x2="65.2817" y2="41.6293" gradientUnits="userSpaceOnUse">
<stop stop-color="#009FFD"/>
<stop offset="1" stop-color="#2A2A72"/>
</linearGradient>
<linearGradient id="paint3_linear_7282_763" x1="55.1752" y1="30.0956" x2="55.1752" y2="53.2413" gradientUnits="userSpaceOnUse">
<stop stop-color="#009FFD"/>
<stop offset="1" stop-color="#2A2A72"/>
</linearGradient>
<linearGradient id="paint4_linear_7282_763" x1="71.7476" y1="36.3348" x2="93.4024" y2="36.3348" gradientUnits="userSpaceOnUse">
<stop stop-color="#009FFD"/>
<stop offset="1" stop-color="#2A2A72"/>
</linearGradient>
<linearGradient id="paint5_linear_7282_763" x1="82.5188" y1="19.5065" x2="82.5188" y2="53.2188" gradientUnits="userSpaceOnUse">
<stop stop-color="#009FFD"/>
<stop offset="1" stop-color="#2A2A72"/>
</linearGradient>
<linearGradient id="paint6_linear_7282_763" x1="98.6035" y1="41.6297" x2="102.729" y2="41.6297" gradientUnits="userSpaceOnUse">
<stop stop-color="#009FFD"/>
<stop offset="1" stop-color="#2A2A72"/>
</linearGradient>
<linearGradient id="paint7_linear_7282_763" x1="100.13" y1="30.0956" x2="100.13" y2="53.2413" gradientUnits="userSpaceOnUse">
<stop stop-color="#009FFD"/>
<stop offset="1" stop-color="#2A2A72"/>
</linearGradient>
<linearGradient id="paint8_linear_7282_763" x1="109.384" y1="41.3718" x2="120.774" y2="41.3718" gradientUnits="userSpaceOnUse">
<stop stop-color="#009FFD"/>
<stop offset="1" stop-color="#2A2A72"/>
</linearGradient>
<linearGradient id="paint9_linear_7282_763" x1="115.826" y1="29.4683" x2="115.826" y2="53.265" gradientUnits="userSpaceOnUse">
<stop stop-color="#009FFD"/>
<stop offset="1" stop-color="#2A2A72"/>
</linearGradient>
<linearGradient id="paint10_linear_7282_763" x1="122.788" y1="41.3716" x2="140.692" y2="41.3716" gradientUnits="userSpaceOnUse">
<stop stop-color="#009FFD"/>
<stop offset="1" stop-color="#2A2A72"/>
</linearGradient>
<linearGradient id="paint11_linear_7282_763" x1="132.275" y1="29.5011" x2="132.275" y2="53.2041" gradientUnits="userSpaceOnUse">
<stop stop-color="#009FFD"/>
<stop offset="1" stop-color="#2A2A72"/>
</linearGradient>
<linearGradient id="paint12_linear_7282_763" x1="145.427" y1="36.3342" x2="164.735" y2="36.3342" gradientUnits="userSpaceOnUse">
<stop stop-color="#009FFD"/>
<stop offset="1" stop-color="#2A2A72"/>
</linearGradient>
<linearGradient id="paint13_linear_7282_763" x1="154.979" y1="19.506" x2="154.979" y2="53.2183" gradientUnits="userSpaceOnUse">
<stop stop-color="#009FFD"/>
<stop offset="1" stop-color="#2A2A72"/>
</linearGradient>
<linearGradient id="paint14_linear_7282_763" x1="18.4654" y1="16.4589" x2="22.1646" y2="28.379" gradientUnits="userSpaceOnUse">
<stop stop-color="#009FFD"/>
<stop offset="1" stop-color="#2A2A72"/>
</linearGradient>
<linearGradient id="paint15_linear_7282_763" x1="20.371" y1="51.899" x2="14.608" y2="30.8165" gradientUnits="userSpaceOnUse">
<stop stop-color="#009FFD"/>
<stop offset="1" stop-color="#2A2A72"/>
</linearGradient>
<linearGradient id="paint16_linear_7282_763" x1="12.7647" y1="12.4572" x2="22.9256" y2="53.1034" gradientUnits="userSpaceOnUse">
<stop stop-color="#009FFD"/>
<stop offset="1" stop-color="#2A2A72"/>
</linearGradient>
</defs>
</svg>
