<?xml version="1.0" encoding="UTF-8"?>
<!DOCTYPE svg PUBLIC "-//W3C//DTD SVG 1.1//EN" "http://www.w3.org/Graphics/SVG/1.1/DTD/svg11.dtd">
<!-- Creator: CorelDRAW 2021 (64-Bit) -->
<svg xmlns="http://www.w3.org/2000/svg" xml:space="preserve" width="5.69052in" height="4.7812in" version="1.1" style="shape-rendering:geometricPrecision; text-rendering:geometricPrecision; image-rendering:optimizeQuality; fill-rule:evenodd; clip-rule:evenodd"
viewBox="0 0 71624.06 60178.95"
 xmlns:xlink="http://www.w3.org/1999/xlink"
 xmlns:xodm="http://www.corel.com/coreldraw/odm/2003">
 <defs>
  <style type="text/css">
   <![CDATA[
    .fil0 {fill:black}
   ]]>
  </style>
 </defs>
 <g id="Layer_x0020_1">
  <metadata id="CorelCorpID_0Corel-Layer"/>
  <g id="_1558409291472">
   <path class="fil0" d="M46085.17 13859.15c-577.1,3632.31 -1656.47,7567.55 -2386.74,11206.31 -760.45,3789.3 -1602.26,7441.98 -2405.17,11239.21 -789.98,3735.73 -1614.5,7527.11 -2393.38,11213.14l-1789.13 8391.92c-232.55,1141.12 -23.69,2045.42 -1310.34,2039.07 -807.08,-3.96 -900.34,-154.31 -1061.58,-751.58l-4437.11 -20913.03c-773.18,-3712.79 -1646.26,-7457.59 -2401.46,-11217.95 -694.05,-3456.2 -1979.91,-7824.14 -2368.6,-11269.39l20553.52 62.29zm2234.71 -62.69l20979.03 80.38c-367.93,1093.74 -2826.03,4087.91 -3615.86,5195.68 -1271.94,1783.87 -2434.56,3288.91 -3717.45,5023.43 -2503.24,3384.3 -4926.65,6658.34 -7411.75,10072.03l-11120.13 15102.69c-653.16,903.46 -1152.32,1567.42 -1861.92,2510.03 -514.86,683.94 -1301.22,1955.23 -1876.64,2418.11l8624.72 -40402.33zm-16431.86 40406.35c-601.68,-539.59 -1390.82,-1817.17 -1930.75,-2525.54 -683.19,-896.32 -1232.54,-1636.01 -1859.79,-2511.66 -1284.13,-1792.69 -2426.78,-3279.99 -3711.1,-5027.05 -1785.26,-2428.41 -21688.29,-29050.09 -22088.38,-30337.64l20978.78 50.74 8611.24 40351.15zm18389.72 -42610.78c737.21,-1174.56 3112.05,-3451.94 4239.69,-4557.18 1393.59,-1365.89 2654.68,-3054.67 4186.42,-4367.54 600.88,271.5 9637.64,8391.08 9965.09,8922.34l-18391.2 2.38zm-23341.89 -34.64c478.04,-760.15 5250.63,-5245.67 6604.33,-6619.74 527.89,-535.77 1731.79,-1906.77 2260.03,-2179.31l8858.22 8806.68 -17722.58 -7.63zm-24026.22 38.9c340.04,-638 6513.2,-5895.87 7454.27,-6758.09 637.85,-584.43 1896.31,-1866.63 2532.67,-2162.76l8420.51 8917.33 -18407.46 3.52zm44604.66 -502.57c-392.71,-229.93 0.5,40.24 -429.78,-317.29l-1905.97 -1940.81c-1337.55,-1427.63 -6035.21,-5635.02 -6579.9,-6570.24l17305.69 7.73c-427.94,770.36 -1325.16,1566.68 -2110.23,2287.14l-4179.38 4389.49c-666.39,731.85 -1295.43,1637.24 -2100.42,2143.98zm-23428.16 -0.35c-775.31,-458.57 -5299.09,-5634.27 -6359.73,-6627.27 -781.16,-731.41 -1588.19,-1367.82 -2034.22,-2201.21l17304.99 9.61 -8911.04 8818.87zm-10633.37 -10936.39c-1742.84,322.69 -3689.85,2111.27 -4933.69,3362.89 -426.11,428.79 -587.51,523.53 -1032.4,892.56l-5420.85 4895.43c-699.89,709.21 -1412.17,1151.97 -1817.32,2381.29 -896.57,2720.14 836.11,4486.96 1974.85,6005.68 2359.14,3146.39 4544,6332.28 6953.88,9480.31 6929.55,9051.87 14004.19,19111.46 20928.78,28375.13 1511.87,2022.57 3468.34,5735.21 7301.4,4311.35 1211.53,-450.04 1657.12,-1010.94 2309.24,-1891.4l14018.17 -19027.37c2355.57,-3196.54 4705.05,-6308.5 6970.63,-9464.95 1316.09,-1833.58 9809.3,-13033.69 10409.39,-14239.42 1145.82,-2302.2 218.63,-4255.8 -1399.24,-5766.43 -2904.67,-2712.06 -5759.05,-5070.06 -8656.49,-7772.16 -2010.83,-1875.2 -3196.99,-1632.54 -6551.36,-1632.49 -4163.08,0 -39489.81,-200.2 -41055,89.59z"/>
  </g>
 </g>
</svg>
