<?xml version="1.0" encoding="UTF-8"?>
<!DOCTYPE svg PUBLIC "-//W3C//DTD SVG 1.1//EN" "http://www.w3.org/Graphics/SVG/1.1/DTD/svg11.dtd">
<!-- Creator: CorelDRAW 2021 (64-Bit) -->
<svg xmlns="http://www.w3.org/2000/svg" xml:space="preserve" width="5.84707in" height="5.21073in" version="1.1" style="shape-rendering:geometricPrecision; text-rendering:geometricPrecision; image-rendering:optimizeQuality; fill-rule:evenodd; clip-rule:evenodd"
viewBox="0 0 602.23 536.69"
 xmlns:xlink="http://www.w3.org/1999/xlink"
 xmlns:xodm="http://www.corel.com/coreldraw/odm/2003">
 <defs>
  <style type="text/css">
   <![CDATA[
    .fil0 {fill:black}
    .fil1 {fill:#7B7B7B}
   ]]>
  </style>
 </defs>
 <g id="Layer_x0020_1">
  <metadata id="CorelCorpID_0Corel-Layer"/>
  <g id="_1558407522688">
   <path class="fil0" d="M134.76 404.53l18.05 15.93 35.7 30.96c15.85,13.22 56.07,49.73 70.7,60.82 10.91,8.27 22.24,24.46 41.83,24.45 18.67,-0 27.14,-12.88 42.67,-25.05l70.65 -60.88c6.54,-5.61 11.17,-9.61 17.61,-15.29 6.37,-5.61 11.98,-9.92 17.3,-15.02 0.23,-0.31 0.56,-1.19 0.68,-0.93l3.13 -2.95c2.12,-1.64 2.76,-1.59 4.83,-3.8 4.32,-4.61 0.36,-3.13 9.41,-8.25l29.61 -27.02c10.19,-9.65 18.85,-18.57 28.11,-29.08l19.98 -22.93c2.12,-2.99 3.94,-5.19 6.23,-8.06 9.07,-11.36 15.64,-21.05 23.02,-34.15 46.73,-82.96 35.56,-189.51 -38.58,-247.84 -50.16,-39.47 -116.32,-47.04 -174.58,-16.86 -19.17,9.93 -33.73,23.74 -47.17,38.6 -2.59,2.86 -4.53,4.7 -6.78,7.5 -3.05,3.8 -3.08,4.65 -6.12,7.11 -3.08,-2.49 -1.3,-1.07 -3.64,-3.91 -37.96,-46.14 -85.78,-75.48 -151.57,-66.18 -128.51,18.18 -184.15,164.51 -117.51,282.49 14.78,26.17 32.18,45.71 49.35,65.01 9.21,10.36 18.08,19.56 28.2,28.98l28.88 26.33z"/>
   <path class="fil1" d="M449.28 420.46l18.05 -15.93c-9.05,5.12 -5.09,3.64 -9.41,8.25 -2.07,2.21 -2.71,2.16 -4.83,3.8l-3.13 2.95c-0.13,-0.26 -0.46,0.62 -0.68,0.93z"/>
   <path class="fil1" d="M152.81 420.46l-18.05 -15.93c3.64,5 4.67,2.94 9.33,8.42 4.49,5.28 3.58,4.57 8.72,7.51z"/>
  </g>
 </g>
</svg>
