<?xml version="1.0" encoding="UTF-8"?>
<!DOCTYPE svg PUBLIC "-//W3C//DTD SVG 1.1//EN" "http://www.w3.org/Graphics/SVG/1.1/DTD/svg11.dtd">
<!-- Creator: CorelDRAW 2021 (64-Bit) -->
<svg xmlns="http://www.w3.org/2000/svg" xml:space="preserve" width="3.7535in" height="5.86209in" version="1.1" style="shape-rendering:geometricPrecision; text-rendering:geometricPrecision; image-rendering:optimizeQuality; fill-rule:evenodd; clip-rule:evenodd"
viewBox="0 0 2563.18 4003.08"
 xmlns:xlink="http://www.w3.org/1999/xlink"
 xmlns:xodm="http://www.corel.com/coreldraw/odm/2003">
 <defs>
  <style type="text/css">
   <![CDATA[
    .fil0 {fill:black}
   ]]>
  </style>
 </defs>
 <g id="Layer_x0020_1">
  <metadata id="CorelCorpID_0Corel-Layer"/>
  <g id="_1558579968064">
   <path class="fil0" d="M726.49 2152.53c-22.72,-11.14 -103.82,-122.6 -123.06,-149.45 -292.13,-407.6 -796.57,-139.23 -526.37,241.99 188.65,266.17 257.36,376.95 371.68,699.59 47.66,134.53 90.55,261.35 164.44,366.31 175.04,248.64 213.44,225.47 211.24,586.05 -0.75,123.06 44.27,104.11 160.56,103.83 356.49,-0.87 715.74,5.05 1071.75,0.46 119.05,-1.53 94.47,-71 93.7,-171.11 -2.47,-323.07 116.47,-366.84 240.63,-556.18 184.91,-281.99 167.79,-517.56 168.13,-894.14 0.13,-139.12 23.16,-385.87 -42.8,-488.95 -81.94,-128.05 -199.65,-149.76 -365.48,-90.97 -22.69,-42.04 -23.3,-174.21 -184.92,-230.6 -133.91,-46.72 -236.74,8.9 -307.99,68.27 -51.23,-31.04 -67.04,-66.1 -156.31,-86.62 -101.98,-23.43 -135.69,6.54 -217.72,29.04 -0.8,-288.5 5.55,-580.91 0.34,-868.77 -5.03,-277.97 -316.71,-384.74 -482.02,-201.45 -88.36,97.96 -74.57,207.87 -74.69,362.84 -0.11,142.19 -0.22,284.38 -0.28,426.57 -0.12,283.99 2.51,569.48 -0.81,853.29z"/>
   <path class="fil0" d="M943.06 3.88c-287.02,30.12 -492.9,209.88 -580.91,426.08 -55.58,136.53 -69.97,281.35 -34.17,435.08 28.76,123.5 118.3,270.42 186.22,327.14 58.14,48.56 139.11,-20.48 87.47,-87.59 -38.12,-49.55 -70.69,-74.27 -107.4,-148.74 -205.31,-416.56 135.31,-877.57 571.19,-827.36 455.83,52.51 691.03,592.04 349.83,965.92 -56.72,62.15 -0.82,216.9 146.73,23.49 366.57,-480.49 -27.69,-1176.09 -618.97,-1114.04z"/>
  </g>
 </g>
</svg>
