<?xml version="1.0" encoding="UTF-8"?>
<!DOCTYPE svg PUBLIC "-//W3C//DTD SVG 1.1//EN" "http://www.w3.org/Graphics/SVG/1.1/DTD/svg11.dtd">
<!-- Creator: CorelDRAW 2021 (64-Bit) -->
<svg xmlns="http://www.w3.org/2000/svg" xml:space="preserve" width="4.39014in" height="5.12471in" version="1.1" style="shape-rendering:geometricPrecision; text-rendering:geometricPrecision; image-rendering:optimizeQuality; fill-rule:evenodd; clip-rule:evenodd"
viewBox="0 0 2776.72 3241.32"
 xmlns:xlink="http://www.w3.org/1999/xlink"
 xmlns:xodm="http://www.corel.com/coreldraw/odm/2003">
 <defs>
  <style type="text/css">
   <![CDATA[
    .fil0 {fill:black}
   ]]>
  </style>
 </defs>
 <g id="Layer_x0020_1">
  <metadata id="CorelCorpID_0Corel-Layer"/>
  <g id="_1558005681344">
   <path class="fil0" d="M1241.36 704.73c623.43,-83.81 1213.27,356.59 1296.61,1005.24 87.1,677.91 -420.14,1220.15 -998.13,1290.61 -688.49,83.93 -1222.15,-411.22 -1297.71,-1003.88 -79.89,-626.7 361.47,-1206.24 999.22,-1291.98zm1250.43 1992.22c290.53,-384 373.75,-891.25 180.32,-1375.23 -73.95,-185.03 -123.55,-222.53 -206.58,-346.04 -15.01,-22.33 -4.16,-0.42 -12.3,-21.77 47.2,-43.25 198.71,-181.46 207.35,-238.94 13.27,-88.19 -59.03,-152.17 -141.8,-132.62 -68.58,16.2 -165.64,170.07 -233.56,206.2 -71.96,-38.62 -126.39,-115.28 -344.22,-210.17 -143.38,-62.46 -264.62,-86.3 -435.56,-109.52l-0.22 -235.27c66.11,-3.59 204.09,7.48 257.66,-4.57 60.66,-13.64 113.46,-83.69 80.22,-158.28 -31.56,-70.84 -97.23,-70.89 -189.74,-70.74l-526.57 0c-91.74,-0.15 -158.88,-0.69 -189.98,70.48 -32.9,75.31 19.79,144.6 80.52,158.5 52.55,12.03 192.19,1.05 257.71,4.6l-1.24 235.27c-372.84,51.09 -616.08,164.98 -822.87,361.84 -187.84,178.82 -349.1,395.63 -424.33,751.38 -73.62,348.13 13.39,719.78 164.28,975.23 506.36,857.22 1714.77,914.31 2300.9,139.63z"/>
   <path class="fil0" d="M1359.17 1049.96c-117.54,41.76 -84.2,164.64 -84.2,378.04 0,555.64 -66.38,404 230.34,701.2 40,40.06 74.26,73.7 114.14,114.06 33.94,34.34 75.55,95.49 159.1,65.21 49.14,-17.81 90.53,-79.3 69.53,-144.5 -19.36,-60.12 -319.3,-314.59 -337.38,-355.6 -25.85,-58.64 9.51,-609.21 -10.67,-683.86 -14.12,-52.23 -76.71,-97.35 -140.86,-74.56z"/>
  </g>
 </g>
</svg>
